# Blender v3.2.1 OBJ File: 'cornell.blend'
# www.blender.org
mtllib testObjs.mtl
o small_box
v -13.810858 -8.695069 10.538916
v -13.810858 6.900954 10.538918
v -28.755634 6.900955 6.079139
v -28.755634 -8.695068 6.079137
v -9.351079 -8.695068 -4.405860
v -9.351079 6.900955 -4.405858
v -24.295855 6.900956 -8.865637
v -24.295855 -8.695067 -8.865639
vn 0.9582 -0.0000 0.2860
vn 0.0000 1.0000 0.0000
vn -0.9582 -0.0000 -0.2860
vn -0.0000 -1.0000 0.0000
vn -0.2860 -0.0000 0.9582
vn 0.2860 0.0000 -0.9582
usemtl box_Material
s off
f 5//1 6//1 2//1 1//1
f 6//2 7//2 3//2 2//2
f 7//3 8//3 4//3 3//3
f 8//4 5//4 1//4 4//4
f 1//5 2//5 3//5 4//5
f 8//6 7//6 6//6 5//6
o large_box
v -3.052612 -8.695065 -6.607949
v -3.052612 22.496979 -6.607955
v -7.673418 22.496975 -21.503727
v -7.673418 -8.695067 -21.503723
v 11.843161 -8.695065 -11.228755
v 11.843161 22.496979 -11.228761
v 7.222355 22.496975 -26.124535
v 7.222355 -8.695067 -26.124527
vn 0.2963 0.0000 0.9551
vn -0.0000 1.0000 -0.0000
vn -0.2963 -0.0000 -0.9551
vn 0.0000 -1.0000 0.0000
vn -0.9551 0.0000 0.2963
vn 0.9551 -0.0000 -0.2963
usemtl box_Material
s off
f 13//7 14//7 10//7 9//7
f 14//8 15//8 11//8 10//8
f 15//9 16//9 12//9 11//9
f 16//10 13//10 9//10 12//10
f 9//11 10//11 11//11 12//11
f 16//12 15//12 14//12 13//12
